PathFileType	4	(X/Y/Z)	/Users/itak/Documents/Research/Walk-IL/dataset/trc/00251_00009.trc
DataRate	CameraRate	NumFrames	NumMarkers	Units	OrigDataRate	OrigDataStartFrame	OrigNumFrames
100.000000	100.000000	4	54	mm	100.000000	0	468
Frame#	Time	RPSI			LPSI			L3			STRN			T10			C7			CLAV			RBAK			LBAK			LSHO			LUPA			LAEL			LAOL			LWTS			LWPS			LFRA			LHPS			LHTS			RSHO			RUPA			RAEL			RAOL			RWTS			RWPS			RFRA			RHTS			RHPS			RBHD			LFHD			RFHD			LBHD			LHIP			RHIP			RASI			LASI			LKNE			LTHI			LANK			LTIP			LTOE			LMT1			LMT5			LHEE			RKNE			RTHI			RANK			RTIP			RTOE			RMT1			RMT5			RHEE			LIFD			RIFD			*53			
		X1	Y1	Z1	X2	Y2	Z2	X3	Y3	Z3	X4	Y4	Z4	X5	Y5	Z5	X6	Y6	Z6	X7	Y7	Z7	X8	Y8	Z8	X9	Y9	Z9	X10	Y10	Z10	X11	Y11	Z11	X12	Y12	Z12	X13	Y13	Z13	X14	Y14	Z14	X15	Y15	Z15	X16	Y16	Z16	X17	Y17	Z17	X18	Y18	Z18	X19	Y19	Z19	X20	Y20	Z20	X21	Y21	Z21	X22	Y22	Z22	X23	Y23	Z23	X24	Y24	Z24	X25	Y25	Z25	X26	Y26	Z26	X27	Y27	Z27	X28	Y28	Z28	X29	Y29	Z29	X30	Y30	Z30	X31	Y31	Z31	X32	Y32	Z32	X33	Y33	Z33	X34	Y34	Z34	X35	Y35	Z35	X36	Y36	Z36	X37	Y37	Z37	X38	Y38	Z38	X39	Y39	Z39	X40	Y40	Z40	X41	Y41	Z41	X42	Y42	Z42	X43	Y43	Z43	X44	Y44	Z44	X45	Y45	Z45	X46	Y46	Z46	X47	Y47	Z47	X48	Y48	Z48	X49	Y49	Z49	X50	Y50	Z50	X51	Y51	Z51	X52	Y52	Z52	X53	Y53	Z53	X54	Y54	Z54	

1	0	-1627.279296875	1058.450439453125	-308.3518676757812	-1613.46826171875	1063.75	-427.4689025878906	-1617.639526367188	1128.152221679688	-387.1209411621094	-1385.254638671875	1326.983154296875	-362.9745483398438	-1632.529052734375	1255.5361328125	-381.7762145996094	-1584.90234375	1519.822143554688	-385.73828125	-1416.462158203125	1442.681640625	-366.345703125	-1659.368896484375	1375.934448242188	-322.8536987304688	-1594.170043945312	1480.738647460938	-496.102294921875	-1501.114379882812	1484.104736328125	-543.5281982421875	-1523.879272460938	1364.091796875	-621.4952392578125	-1502.912719726562	1155.475219726562	-647.8385009765625	-1576.082885742188	1137.592651367188	-603.7789306640625	-1417.662109375	918.4777221679688	-591.0933227539062	-1440.31640625	905.7647705078125	-673.18212890625	-1480.180541992188	1049.386352539062	-662.1229858398438	-1427.074951171875	816.3077392578125	-671.2090454101562	-1388.387451171875	815.6482543945312	-614.4959716796875	-1547.43408203125	1485	-211.4661560058594	-1571.788330078125	1419.695068359375	-146.0341186523438	-1582.397827148438	1139.805786132812	-101.9740600585938	-1605.56396484375	1129.932739257812	-194.6426391601562	-1437.050048828125	925.6874389648438	-125.0622787475586	-1497.729736328125	913.239013671875	-64.00140380859375	-1555.558471679688	1072.452270507812	-85.00133514404297	-1401.446166992188	805.5450439453125	-102.6063461303711	-1458.193359375	806.305908203125	-57.26675033569336	-1563.787231445312	1678.390502929688	-353.7742309570312	-1344.496459960938	1735.115112304688	-378.4127502441406	-1377.2626953125	1733.083129882812	-284.2950439453125	-1478.043212890625	1690.11767578125	-464.53662109375	-1501.998291015625	996.3063354492188	-556.3550415039062	-1542.7578125	1013.892578125	-191.0163726806641	-1441.957153320312	1055.191650390625	-217.9590606689453	-1404.914794921875	1035.446533203125	-497.4185180664062	-1486.076293945312	508.4180908203125	-509.3294372558594	-1481.375366210938	652.044677734375	-541.6124877929688	-1569.197265625	39.1553955078125	-499.4165344238281	-1536.144653320312	287.3473205566406	-517.0408325195312	-1356.381591796875	47.33134078979492	-438.9560852050781	-1425.257934570312	41.35642623901367	-397.1029052734375	-1440.37451171875	40.37944412231445	-513.9122314453125	-1632.019287109375	44.57516479492188	-449.09130859375	-1521.119750976562	519.7435302734375	-227.9237518310547	-1492.807739257812	787.0645141601562	-180.7300567626953	-1595.47265625	40.5002555847168	-259.8943481445312	-1517.598876953125	404.1023254394531	-245.3755340576172	-1380.254272460938	47.91352462768555	-281.8655090332031	-1432.52490234375	42.49263000488281	-331.1568298339844	-1487.047119140625	42.77023696899414	-224.7204895019531	-1652.17041015625	36.88063812255859	-324.9460754394531	-1420.353271484375	720.2164916992188	-607.8400268554688	-1434.406372070312	740.85302734375	-133.6591339111328	nan	nan	nan	
2	0.01	-1627.312866210938	1058.420654296875	-308.3352355957031	-1613.640258789062	1063.712036132812	-427.4741821289062	-1617.702758789062	1128.152709960938	-387.0955505371094	-1385.362060546875	1327.001831054688	-363.0281982421875	-1632.638793945312	1255.5458984375	-381.8118286132812	-1585.038818359375	1519.786010742188	-385.8032836914062	-1416.507080078125	1442.707397460938	-366.4013671875	-1659.450805664062	1375.9423828125	-322.8509216308594	-1594.294799804688	1480.74609375	-496.2091064453125	-1501.228393554688	1484.131469726562	-543.5662841796875	-1523.532104492188	1364.049438476562	-621.51123046875	-1501.461059570312	1155.481079101562	-647.6177368164062	-1574.8515625	1137.26611328125	-604.039794921875	-1414.966552734375	919.25830078125	-589.6801147460938	-1436.793090820312	906.1098022460938	-671.7525024414062	-1477.877075195312	1049.460815429688	-661.5016479492188	-1422.737548828125	816.8368530273438	-669.356201171875	-1384.5615234375	816.6327514648438	-612.3365478515625	-1547.4638671875	1485.02978515625	-211.5222320556641	-1571.779174804688	1419.708618164062	-146.0899505615234	-1582.187255859375	1139.829711914062	-101.9661254882812	-1605.403198242188	1129.918334960938	-194.5753021240234	-1436.656127929688	925.9513549804688	-125.2809143066406	-1497.114379882812	913.3948974609375	-64.13555908203125	-1555.249755859375	1072.4716796875	-85.00619506835938	-1400.59033203125	805.8824462890625	-102.8557357788086	-1457.335571289062	806.5327758789062	-57.43201065063477	-1563.817504882812	1678.40234375	-353.8084106445312	-1344.566040039062	1735.055908203125	-378.5336608886719	-1377.199829101562	1733.03173828125	-284.4681091308594	-1478.173950195312	1690.109741210938	-464.6503295898438	-1502.175415039062	996.3189086914062	-556.4352416992188	-1542.8076171875	1013.8828125	-191.1329650878906	-1441.994873046875	1055.1533203125	-218.0944366455078	-1405.292846679688	1035.445678710938	-497.6011657714844	-1486.08349609375	508.4234313964844	-509.3703002929688	-1481.371704101562	652.0476684570312	-541.6761474609375	-1569.199096679688	39.14681625366211	-499.4385070800781	-1536.14306640625	287.3423461914062	-517.1238403320312	-1356.425415039062	47.31626129150391	-438.9455261230469	-1425.259033203125	41.35580062866211	-397.0969848632812	-1440.372436523438	40.37873077392578	-513.9091186523438	-1632.025634765625	44.57350540161133	-449.1323852539062	-1521.0517578125	519.7503051757812	-227.951904296875	-1492.741088867188	787.0474853515625	-180.8072357177734	-1595.4765625	40.51482772827148	-259.9107055664062	-1517.55908203125	404.0927734375	-245.3950958251953	-1380.257568359375	47.91484451293945	-281.8656921386719	-1432.523559570312	42.49020004272461	-331.1683044433594	-1487.038452148438	42.77858734130859	-224.7218933105469	-1652.175659179688	36.87422943115234	-324.9550476074219	-1415.540649414062	721.03955078125	-605.5682983398438	-1433.567993164062	741.2079467773438	-133.9641723632812	nan	nan	nan	
3	0.02	-1627.352905273438	1058.382934570312	-308.3116455078125	-1613.855590820312	1063.66455078125	-427.4781188964844	-1617.78564453125	1128.152465820312	-387.0645751953125	-1385.49560546875	1327.027954101562	-363.1025695800781	-1632.773681640625	1255.55712890625	-381.853515625	-1585.2021484375	1519.744262695312	-385.8837585449219	-1416.56494140625	1442.738037109375	-366.4741821289062	-1659.5498046875	1375.951538085938	-322.8420715332031	-1594.45263671875	1480.757080078125	-496.3453369140625	-1501.373168945312	1484.165161132812	-543.6160888671875	-1523.0908203125	1364.001708984375	-621.5257568359375	-1499.637939453125	1155.495361328125	-647.3439331054688	-1573.295776367188	1136.867309570312	-604.37060546875	-1411.564208984375	920.32080078125	-587.885498046875	-1432.3876953125	906.5833129882812	-669.9415283203125	-1474.994018554688	1049.572387695312	-660.7147827148438	-1417.300048828125	817.5462036132812	-667.0007934570312	-1379.67236328125	817.9920043945312	-609.6318359375	-1547.4970703125	1485.063720703125	-211.5889587402344	-1571.761474609375	1419.725708007812	-146.1558532714844	-1581.91357421875	1139.847778320312	-101.954475402832	-1605.203735351562	1129.8974609375	-194.4934844970703	-1436.17724609375	926.2763671875	-125.5470428466797	-1496.323852539062	913.579833984375	-64.31955718994141	-1554.853271484375	1072.48876953125	-85.01631164550781	-1399.520629882812	806.3146362304688	-103.1863632202148	-1456.2451171875	806.7932739257812	-57.68364715576172	-1563.847534179688	1678.418823242188	-353.8470153808594	-1344.639038085938	1734.975952148438	-378.6891784667969	-1377.12109375	1732.962768554688	-284.6739196777344	-1478.3271484375	1690.099487304688	-464.7828674316406	-1502.410034179688	996.3330688476562	-556.537841796875	-1542.866088867188	1013.872619628906	-191.2779846191406	-1442.020141601562	1055.11279296875	-218.2614898681641	-1405.70263671875	1035.463500976562	-497.8031311035156	-1486.104614257812	508.4292907714844	-509.4201354980469	-1481.373779296875	652.0521240234375	-541.752197265625	-1569.19970703125	39.1346321105957	-499.462158203125	-1536.150024414062	287.3376770019531	-517.2200927734375	-1356.468383789062	47.3026237487793	-438.9332275390625	-1425.26025390625	41.35335159301758	-397.0899353027344	-1440.370849609375	40.37997055053711	-513.9049682617188	-1632.031005859375	44.56595230102539	-449.1805725097656	-1520.962768554688	519.7574462890625	-227.9864654541016	-1492.634765625	787.0242919921875	-180.9116821289062	-1595.480346679688	40.5307502746582	-259.9299011230469	-1517.504272460938	404.0785827636719	-245.4198608398438	-1380.2607421875	47.91623306274414	-281.8659057617188	-1432.522827148438	42.48619079589844	-331.1796569824219	-1487.02880859375	42.78955078125	-224.7230224609375	-1652.179443359375	36.86611175537109	-324.9656982421875	-1409.481689453125	722.1970825195312	-602.6718139648438	-1432.523071289062	741.6458129882812	-134.3582916259766	nan	nan	nan	
4	0.03	-1627.39599609375	1058.339233398438	-308.2805480957031	-1614.10400390625	1063.609985351562	-427.4792175292969	-1617.88671875	1128.1513671875	-387.0305480957031	-1385.6484375	1327.06103515625	-363.1981811523438	-1632.92724609375	1255.568969726562	-381.8984680175781	-1585.380981445312	1519.700439453125	-385.9749450683594	-1416.634399414062	1442.771606445312	-366.5630187988281	-1659.659790039062	1375.961059570312	-322.8250122070312	-1594.637451171875	1480.771606445312	-496.5056457519531	-1501.5419921875	1484.203735351562	-543.6757202148438	-1522.572631835938	1363.953247070312	-621.536376953125	-1497.520141601562	1155.521728515625	-647.030029296875	-1571.475708007812	1136.41748046875	-604.7582397460938	-1407.576782226562	921.6524047851562	-585.7735595703125	-1427.292358398438	907.1858520507812	-667.8160400390625	-1471.656005859375	1049.726318359375	-659.7915649414062	-1410.99462890625	818.4295654296875	-664.2265625	-1373.938232421875	819.7080078125	-606.4974975585938	-1547.52978515625	1485.0986328125	-211.6619262695312	-1571.732666015625	1419.74560546875	-146.2269287109375	-1581.58642578125	1139.85400390625	-101.9383087158203	-1604.976440429688	1129.869262695312	-194.402587890625	-1435.644287109375	926.6455688476562	-125.8444747924805	-1495.38623046875	913.7789306640625	-64.55298614501953	-1554.380493164062	1072.499633789062	-85.03463745117188	-1398.281982421875	806.8246459960938	-103.5913009643555	-1454.955688476562	807.0711669921875	-58.02072143554688	-1563.872436523438	1678.440551757812	-353.8867492675781	-1344.70458984375	1734.876831054688	-378.8753662109375	-1377.030883789062	1732.878051757812	-284.8980407714844	-1478.491577148438	1690.087646484375	-464.9243774414062	-1502.701538085938	996.3480224609375	-556.6610717773438	-1542.915161132812	1013.862731933594	-191.4373931884766	-1442.021362304688	1055.0751953125	-218.4506225585938	-1406.09716796875	1035.505493164062	-498.0063781738281	-1486.144409179688	508.43505859375	-509.4764099121094	-1481.385864257812	652.0573120117188	-541.8360595703125	-1569.198974609375	39.119384765625	-499.4850769042969	-1536.169799804688	287.3338317871094	-517.32177734375	-1356.505126953125	47.29303359985352	-438.9208984375	-1425.26171875	41.34904479980469	-397.082275390625	-1440.369995117188	40.38338470458984	-513.9002685546875	-1632.034301757812	44.55155944824219	-449.2312927246094	-1520.854248046875	519.7637329101562	-228.0254364013672	-1492.48388671875	786.9974365234375	-181.0421142578125	-1595.483032226562	40.54614639282227	-259.9503173828125	-1517.435791015625	404.0592346191406	-245.4486541748047	-1380.263305664062	47.91740036010742	-281.8663024902344	-1432.52294921875	42.48041534423828	-331.1896362304688	-1487.019653320312	42.80171585083008	-224.7235870361328	-1652.1806640625	36.85626602172852	-324.9774475097656	-1402.39013671875	723.7007446289062	-599.2389526367188	-1431.30078125	742.1616821289062	-134.8425750732422	nan	nan	nan	
